<?xml version="1.0" encoding="UTF-8" standalone="no"?>
<!-- Created with Inkscape (http://www.inkscape.org/) -->

<svg
   width="210mm"
   height="297mm"
   viewBox="0 0 210 297"
   version="1.1"
   id="svg1"
   sodipodi:docname="passive-logo.svg"
   inkscape:version="1.3 (0e150ed6c4, 2023-07-21)"
   xml:space="preserve"
   xmlns:inkscape="http://www.inkscape.org/namespaces/inkscape"
   xmlns:sodipodi="http://sodipodi.sourceforge.net/DTD/sodipodi-0.dtd"
   xmlns="http://www.w3.org/2000/svg"
   xmlns:svg="http://www.w3.org/2000/svg"><sodipodi:namedview
     id="namedview1"
     pagecolor="#ffffff"
     bordercolor="#666666"
     borderopacity="1.0"
     inkscape:showpageshadow="2"
     inkscape:pageopacity="0.0"
     inkscape:pagecheckerboard="0"
     inkscape:deskcolor="#d1d1d1"
     inkscape:document-units="mm"
     inkscape:zoom="0.53228931"
     inkscape:cx="252.68214"
     inkscape:cy="701.68608"
     inkscape:window-width="1920"
     inkscape:window-height="1057"
     inkscape:window-x="1912"
     inkscape:window-y="-8"
     inkscape:window-maximized="1"
     inkscape:current-layer="layer1" /><defs
     id="defs1" /><g
     inkscape:label="Layer 1"
     inkscape:groupmode="layer"
     id="layer1"><path
       id="rect1168"
       style="fill:none;stroke:#ff0000;stroke-width:4.01282;stroke-linecap:square;stroke-linejoin:miter;stroke-dasharray:none;stroke-opacity:1;paint-order:markers stroke fill"
       d="M 11.151293,9.5541395 63.265963,2.7944895 55.743143,21.11094 3.6284626,28.19766 Z"
       sodipodi:nodetypes="ccccc" /><path
       style="font-size:19.7556px;line-height:1.25;font-family:Bangers;-inkscape-font-specification:Bangers;letter-spacing:0px;word-spacing:0px;fill:#ff0000;stroke:#000000;stroke-width:1.465;paint-order:markers stroke fill"
       d="m 4.4903126,22.68351 3.41772,-0.67169 c 0.079,-0.51364 0.15804,-1.04705 0.25682,-1.58045 0.0593,-0.43462 0.13829,-0.92851 0.23707,-1.46191 0.079,-0.51365 0.1778,-1.00754 0.29633,-1.46192 h 0.21732 c 0.63217,0 1.2248404,-0.15804 1.8175104,-0.47413 0.59267,-0.31609 1.10631,-0.73096 1.56069,-1.26436 0.45438,-0.5334 0.80998,-1.14582 1.08656,-1.83727 0.27658,-0.67169 0.41487,-1.38289 0.41487,-2.1336 0,-0.51365 -0.0593,-0.98778 -0.15805,-1.44216 -0.11853,-0.4346305 -0.29633,-0.8297405 -0.5334,-1.1655805 -0.25682,-0.33585 -0.59267,-0.61243 -0.98778,-0.80998 -0.39511,-0.19756 -0.889,-0.29634 -1.48167,-0.29634 -0.3556,0 -0.7112004,0.0395 -1.1063104,0.0988 -0.39511,0.079 -0.77047,0.15805 -1.14583,0.23707 -0.3556,0.079 -0.73095,0.1778 -1.12607,0.29633 -0.079,0.59267 -0.19755,1.24461 -0.33584,1.9558105 -0.11853,0.7112 -0.25682,1.46191 -0.41487,2.21262 -0.13829,0.77047 -0.29633,1.54094 -0.45438,2.33116 -0.15804,0.79023 -0.29633,1.54094 -0.45438,2.25214 -0.3556,1.69898 -0.7112,3.43748 -1.10631,5.21548 z m 5.05743,-9.73951 c 0.15805,-0.77047 0.29634,-1.6002 0.43463,-2.46945 0.2765804,0 0.5136404,0.13829 0.7309504,0.37536 0.21732,0.25682 0.31609,0.63218 0.31609,1.10631 0,0.45438 -0.0593,0.889 -0.1778,1.28411 -0.11853,0.41487 -0.27657,0.77047 -0.47413,1.08656 -0.19756,0.31609 -0.3951104,0.55316 -0.6321804,0.75072 -0.23707,0.19755 -0.45438,0.31609 -0.67169,0.37535 0.1778,-0.889 0.33585,-1.71874 0.47413,-2.50896 z m 8.4356604,9.50244 c 0.39511,-0.0593 0.75071,-0.11853 1.08656,-0.1778 0.39511,-0.0395 0.79022,-0.079 1.18533,-0.15804 0.079,-2.03483 0.13829,-3.97088 0.21731,-5.78839 0.0395,-0.77047 0.079,-1.56069 0.11854,-2.37067 0.0395,-0.79023 0.079,-1.5607 0.11853,-2.31141 0.0395,-0.73096 0.079,-1.40265 0.11853,-2.0348305 0.0395,-0.63217 0.0988,-1.14582 0.13829,-1.58044 -0.889,0.15804 -1.79776,0.29633 -2.72627,0.37535 -0.92851,0.0988 -1.83727,0.1778 -2.72627,0.23707 -0.15805,0.59267 -0.3556,1.2446 -0.55316,1.9558005 -0.21731,0.71121 -0.43462,1.46192 -0.67169,2.23239 -0.23707,0.77047 -0.45438,1.54093 -0.69145,2.3114 -0.23706,0.79023 -0.45437,1.52118 -0.67169,2.23239 -0.51364,1.69898 -1.02729,3.43747 -1.56069,5.17596 0.41487,-0.0395 0.82974,-0.0988 1.2446,-0.15804 0.3556,-0.0395 0.71121,-0.079 1.10632,-0.11854 0.39511,-0.0395 0.75071,-0.0988 1.02729,-0.13829 l 0.79022,-2.8448 h 1.71874 c -0.0198,0.27658 -0.0395,0.59267 -0.079,0.94827 -0.0395,0.37535 -0.079,0.75071 -0.11854,1.10631 -0.0395,0.43462 -0.0988,0.84949 -0.15804,1.28411 z m -1.97556,-5.13645 1.22484,-4.95866 0.45438,-1.69898 0.29634,-0.0197 -0.11854,1.71873 c -0.079,0.79023 -0.13829,1.50143 -0.19755,2.17312 -0.0198,0.27658 -0.0395,0.57291 -0.079,0.84949 -0.0198,0.29633 -0.0395,0.57291 -0.0593,0.80998 -0.0198,0.23707 -0.0395,0.45438 -0.0593,0.65193 -0.0198,0.19756 -0.0395,0.31609 -0.0395,0.39512 -0.0395,0.0198 -0.13829,0.0395 -0.27658,0.0395 -0.11853,0 -0.25682,0.0197 -0.41487,0.0197 -0.15804,0 -0.29633,0.0198 -0.43462,0.0198 -0.13829,0 -0.23707,0 -0.29633,0 z m 12.56459,2.4892 c 0.27657,-0.59266 0.43462,-1.26435 0.43462,-1.99531 0,-0.7112 -0.0988,-1.28412 -0.27658,-1.73849 -0.1778,-0.45438 -0.39511,-0.82974 -0.65193,-1.12607 -0.27658,-0.31609 -0.55316,-0.55316 -0.86925,-0.75072 -0.31609,-0.19755 -0.59267,-0.37535 -0.84949,-0.55315 -0.27658,-0.19756 -0.49389,-0.39512 -0.67169,-0.59267 -0.1778,-0.21731 -0.25682,-0.47414 -0.25682,-0.79023 0,-0.19755 0.0395,-0.39511 0.15804,-0.55315 0.0988,-0.1778 0.21731,-0.33585 0.37536,-0.45438 0.15804,-0.11853 0.29633,-0.21731 0.45438,-0.29633 0.15804,-0.079 0.27657,-0.11854 0.39511,-0.11854 0.21731,0 0.39511,0.079 0.5334,0.25682 0.13829,0.1778 0.21731,0.47414 0.21731,0.86925 0,0.0988 -0.0197,0.19756 -0.0395,0.29633 -0.0198,0.11854 -0.0395,0.21732 -0.0593,0.31609 l 2.86456,-0.82973 c 0.0198,-0.19756 0.0395,-0.39511 0.079,-0.59267 0.0395,-0.1778 0.0593,-0.3556 0.0593,-0.55316 0,-0.43462 -0.079,-0.7902205 -0.21731,-1.0865505 -0.13829,-0.27658 -0.31609,-0.51365 -0.55315,-0.71121 -0.23707,-0.19755 -0.49389,-0.33584 -0.80998,-0.41486 -0.31609,-0.079 -0.65194,-0.13829 -1.00754,-0.13829 -0.65193,0 -1.34338,0.13829 -2.05458,0.37535 -0.73096,0.25683 -1.40265,0.59267 -2.01507,1.0273 -0.61243,0.4346205 -1.12607,0.9285105 -1.52118,1.5211805 -0.41487,0.59266 -0.61243,1.2446 -0.61243,1.91629 0,0.43462 0.0988,0.80998 0.31609,1.14582 0.19756,0.35561 0.45438,0.65194 0.75071,0.92852 0.29634,0.27658 0.63218,0.55315 0.98778,0.79022 0.35561,0.25682 0.67169,0.51365 0.98778,0.75071 0.29634,0.23707 0.55316,0.49389 0.75072,0.77047 0.19755,0.27658 0.29633,0.55316 0.29633,0.86925 0,0.19756 -0.0395,0.3556 -0.11853,0.49389 -0.079,0.13829 -0.19756,0.25682 -0.33585,0.3556 -0.15804,0.11853 -0.31609,0.19756 -0.47413,0.23707 -0.1778,0.0593 -0.33585,0.079 -0.49389,0.079 -0.19756,0 -0.39511,-0.0395 -0.63218,-0.11853 -0.23707,-0.079 -0.45438,-0.19756 -0.69145,-0.33585 -0.23706,-0.11853 -0.43462,-0.27658 -0.63218,-0.45438 -0.1778,-0.1778 -0.31609,-0.3556 -0.41486,-0.5334 l -1.46192,2.86456 c 0.49389,0.63218 1.00754,1.08656 1.54094,1.36314 0.51364,0.27658 1.04705,0.41487 1.58045,0.41487 0.75071,0 1.44216,-0.11854 2.09409,-0.3556 0.65193,-0.23707 1.22485,-0.57292 1.69898,-1.00754 0.47414,-0.43462 0.86925,-0.94827 1.14583,-1.54094 z m 8.49491,0 c 0.27658,-0.59266 0.43462,-1.26435 0.43462,-1.99531 0,-0.7112 -0.0988,-1.28412 -0.27657,-1.73849 -0.17781,-0.45438 -0.39512,-0.82974 -0.65194,-1.12607 -0.27658,-0.31609 -0.55316,-0.55316 -0.86925,-0.75072 -0.31609,-0.19755 -0.59266,-0.37535 -0.84949,-0.55315 -0.27658,-0.19756 -0.49389,-0.39512 -0.67169,-0.59267 -0.1778,-0.21731 -0.25682,-0.47414 -0.25682,-0.79023 0,-0.19755 0.0395,-0.39511 0.15804,-0.55315 0.0988,-0.1778 0.21732,-0.33585 0.37536,-0.45438 0.15805,-0.11853 0.29634,-0.21731 0.45438,-0.29633 0.15804,-0.079 0.27658,-0.11854 0.39511,-0.11854 0.21731,0 0.39511,0.079 0.5334,0.25682 0.13829,0.1778 0.21731,0.47414 0.21731,0.86925 0,0.0988 -0.0197,0.19756 -0.0395,0.29633 -0.0197,0.11854 -0.0395,0.21732 -0.0593,0.31609 l 2.86456,-0.82973 c 0.0197,-0.19756 0.0395,-0.39511 0.079,-0.59267 0.0395,-0.1778 0.0593,-0.3556 0.0593,-0.55316 0,-0.43462 -0.079,-0.7902205 -0.21731,-1.0865505 -0.13829,-0.27658 -0.31609,-0.51365 -0.55316,-0.71121 -0.23707,-0.19755 -0.49389,-0.33584 -0.80998,-0.41486 -0.31609,-0.079 -0.65193,-0.13829 -1.00754,-0.13829 -0.65193,0 -1.34338,0.13829 -2.05458,0.37535 -0.73096,0.25683 -1.40265,0.59267 -2.01507,1.0273 -0.61242,0.4346205 -1.12607,0.9285105 -1.52118,1.5211805 -0.41487,0.59266 -0.61242,1.2446 -0.61242,1.91629 0,0.43462 0.0988,0.80998 0.31609,1.14582 0.19755,0.35561 0.45437,0.65194 0.75071,0.92852 0.29633,0.27658 0.63218,0.55315 0.98778,0.79022 0.3556,0.25682 0.67169,0.51365 0.98778,0.75071 0.29633,0.23707 0.55316,0.49389 0.75071,0.77047 0.19756,0.27658 0.29634,0.55316 0.29634,0.86925 0,0.19756 -0.0395,0.3556 -0.11854,0.49389 -0.079,0.13829 -0.19755,0.25682 -0.33584,0.3556 -0.15805,0.11853 -0.31609,0.19756 -0.47414,0.23707 -0.1778,0.0593 -0.33584,0.079 -0.49389,0.079 -0.19755,0 -0.39511,-0.0395 -0.63218,-0.11853 -0.23706,-0.079 -0.45438,-0.19756 -0.69144,-0.33585 -0.23707,-0.11853 -0.43463,-0.27658 -0.63218,-0.45438 -0.1778,-0.1778 -0.31609,-0.3556 -0.41487,-0.5334 l -1.46191,2.86456 c 0.49389,0.63218 1.00753,1.08656 1.54093,1.36314 0.51365,0.27658 1.04705,0.41487 1.58045,0.41487 0.75071,0 1.44216,-0.11854 2.09409,-0.3556 0.65194,-0.23707 1.22485,-0.57292 1.69899,-1.00754 0.47413,-0.43462 0.86924,-0.94827 1.14582,-1.54094 z m 2.60774,2.52872 c 0.33585,-0.0395 0.57292,-0.0593 0.69145,-0.0593 0.0988,-0.57291 0.21731,-1.22484 0.3556,-1.93604 0.13829,-0.71121 0.27658,-1.46192 0.41487,-2.21263 0.13829,-0.77047 0.27658,-1.54094 0.43462,-2.31141 0.15805,-0.79022 0.29634,-1.54093 0.45438,-2.25214 0.33585,-1.69898 0.67169,-3.43747 1.00754,-5.1957205 l -3.08188,0.49389 c -0.31609,1.7780105 -0.63218,3.4967405 -0.96802,5.1957205 -0.13829,0.71121 -0.27658,1.46192 -0.43462,2.25214 -0.15805,0.77047 -0.31609,1.54094 -0.47414,2.29165 -0.15804,0.75072 -0.33584,1.48167 -0.49389,2.17312 -0.15804,0.69144 -0.31609,1.32362 -0.47413,1.87678 0.0395,0 0.19755,-0.0395 0.49389,-0.079 0.29633,-0.0395 0.63218,-0.079 0.98778,-0.11854 0.37535,-0.0395 0.73095,-0.079 1.08655,-0.11853 z m 2.68678,0.51365 5.1167,-0.77047 c 0.41487,-1.77801 0.82974,-3.53625 1.24461,-5.23524 0.19755,-0.7112 0.37535,-1.46191 0.57291,-2.25213 0.19756,-0.77047 0.39511,-1.54094 0.59267,-2.29165 0.19755,-0.75072 0.39511,-1.46192 0.59267,-2.17312 0.19755,-0.6914505 0.37535,-1.3236305 0.55315,-1.8965405 -0.29633,0.0395 -0.63218,0.0593 -0.98778,0.079 -0.3556,0 -0.7112,0.0198 -1.02729,0.0593 -0.37536,0.0198 -0.73096,0.0395 -1.08656,0.0593 L 45.720323,18.92999 h -0.35561 c 0.0395,-0.3556 0.079,-0.77047 0.13829,-1.24461 0.0395,-0.49389 0.0988,-1.02729 0.13829,-1.6002 0.0395,-0.55316 0.0988,-1.14582 0.15805,-1.75825 0.0593,-0.61242 0.13829,-1.40264 0.25682,-2.39042 0.0988,-0.98778 0.21731,-2.2323905 0.3556,-3.7733205 l -0.31609,0.0395 c -0.19755,0.0198 -0.45438,0.0395 -0.75071,0.0395 -0.29633,0.0198 -0.63218,0.0395 -0.98778,0.0593 -0.3556,0 -0.7112,0.0198 -1.02729,0.0198 0,0.61242 -0.0198,1.28411 -0.0593,2.0348305 -0.0198,0.75071 -0.0593,1.52118 -0.0988,2.3114 -0.0395,0.79023 -0.0988,1.60021 -0.15804,2.41019 -0.0593,0.82973 -0.11854,1.6002 -0.1778,2.33116 -0.15805,1.778 -0.31609,3.59552 -0.47414,5.43279 z m 6.47983,-0.15805 6.38106,-0.98778 0.19756,-2.25214 -2.88432,0.45438 0.67169,-3.63503 c 0.39511,0 0.77047,-0.0197 1.12607,-0.0395 0.29633,0 0.59267,-0.0198 0.889,-0.0198 0.29634,0 0.51365,-0.0197 0.65194,-0.0395 0.0593,-0.3556 0.11853,-0.73095 0.15804,-1.08655 0.0395,-0.35561 0.0988,-0.71121 0.13829,-1.08656 -0.13829,0.0197 -0.3556,0.0197 -0.65193,0.0197 -0.31609,0 -0.61243,0.0198 -0.88901,0.0198 -0.3556,0.0198 -0.75071,0.0395 -1.14582,0.0593 l 0.69145,-3.53626 h 0.73095 c 0.27658,0 0.57292,0 0.84949,0 0.27658,0 0.53341,-0.0197 0.77047,-0.0197 0.23707,0 0.43463,-0.0198 0.57291,-0.0395 0.0395,-0.19756 0.079,-0.43463 0.13829,-0.7112105 0.0593,-0.27657 0.11854,-0.5334 0.19756,-0.79022 0.0593,-0.29633 0.13829,-0.59267 0.23707,-0.889 l -6.24277,0.5334 z m 9.71974,-4.66232 c 0.37536,-0.0198 0.75071,-0.0395 1.12607,-0.0395 0.59267,-1.69898 1.16558,-3.37821 1.75825,-5.05743 0.59267,-1.67923 1.22484,-3.3584605 1.93605,-5.0179305 -0.19756,0.0395 -0.45438,0.079 -0.77047,0.11854 -0.31609,0.0395 -0.63218,0.0988 -0.96803,0.13829 -0.31609,0.0593 -0.65193,0.0988 -0.96802,0.13828 -0.31609,0.0395 -0.61242,0.079 -0.86925,0.11854 -0.41487,1.6199605 -0.80998,3.2399205 -1.20509,4.8401205 -0.39511,1.61996 -0.79022,3.22016 -1.20509,4.84012 z m 1.16558,3.81283 c 0.11853,-0.23707 0.15804,-0.49389 0.15804,-0.75071 0,-0.45438 -0.1778,-0.86925 -0.57291,-1.22485 -0.37535,-0.3556 -0.94827,-0.55316 -1.71873,-0.55316 -0.33585,0 -0.63218,0.0593 -0.86925,0.1778 -0.23707,0.11854 -0.45438,0.27658 -0.61242,0.45438 -0.15805,0.1778 -0.29634,0.37536 -0.37536,0.61243 -0.079,0.23706 -0.11853,0.47413 -0.11853,0.73095 0,0.21732 0.0395,0.43463 0.11853,0.65194 0.079,0.23707 0.19755,0.43462 0.33584,0.61242 0.13829,0.1778 0.31609,0.31609 0.53341,0.41487 0.23706,0.11853 0.47413,0.15804 0.75071,0.15804 0.41487,0 0.77047,-0.0395 1.08656,-0.15804 0.31609,-0.11853 0.59266,-0.25682 0.79022,-0.45438 0.21731,-0.19755 0.37536,-0.41487 0.49389,-0.67169 z"
       id="text1167"
       aria-label="PASSIVE!" /></g></svg>
