<svg width="16" height="16" viewBox="0 0 16 16" fill="none" xmlns="http://www.w3.org/2000/svg">
<rect width="2.28571" height="2.28571" fill="#D9D9D9"/>
<rect x="16" y="16" width="2.28571" height="2.28571" transform="rotate(-180 16 16)" fill="#D9D9D9"/>
<rect x="2.28571" y="2.28571" width="2.28571" height="2.28571" fill="#D9D9D9"/>
<rect x="13.7143" y="13.7143" width="2.28571" height="2.28571" transform="rotate(-180 13.7143 13.7143)" fill="#D9D9D9"/>
<rect x="4.57141" y="4.57141" width="2.28571" height="2.28571" fill="#D9D9D9"/>
<rect x="11.4286" y="11.4286" width="2.28571" height="2.28571" transform="rotate(-180 11.4286 11.4286)" fill="#D9D9D9"/>
<rect x="6.85712" y="6.85712" width="2.28571" height="2.28571" fill="#D9D9D9"/>
<rect x="9.14288" y="4.57141" width="2.28571" height="2.28571" fill="#D9D9D9"/>
<rect x="6.85712" y="11.4286" width="2.28571" height="2.28571" transform="rotate(-180 6.85712 11.4286)" fill="#D9D9D9"/>
<rect x="11.4286" y="2.28571" width="2.28571" height="2.28571" fill="#D9D9D9"/>
<rect x="4.57141" y="13.7143" width="2.28571" height="2.28571" transform="rotate(-180 4.57141 13.7143)" fill="#D9D9D9"/>
<rect x="13.7143" width="2.28571" height="2.28571" fill="#D9D9D9"/>
<rect x="2.28571" y="16" width="2.28571" height="2.28571" transform="rotate(-180 2.28571 16)" fill="#D9D9D9"/>
</svg>
