<svg width="13" height="13" viewBox="0 0 13 13" fill="none" xmlns="http://www.w3.org/2000/svg">
<g filter="url(#filter0_d_7_254)">
<path d="M10.2857 0H8.57143V0.857143H7.71429V1.71429H8.57143V2.57143H9.42857V3.42857H10.2857V4.28571H11.1429V3.42857H12V1.71429H11.1429V0.857143H10.2857V0Z" fill="#DDDDDD"/>
<path d="M0.857143 8.57143H0V12H3.42857V11.1429H2.57143V10.2857H1.71429V9.42857H0.857143V8.57143Z" fill="#DDDDDD"/>
<path d="M6 2.57143H7.71429V3.42857H8.57143V4.28571H9.42857V6H8.57143V6.85714H7.71429V7.71429H6.85714V8.57143H6V9.42857H5.14286V10.2857H3.42857V9.42857H2.57143V8.57143H1.71429V6.85714H2.57143V6H3.42857V5.14286H4.28571V4.28571H5.14286V3.42857H6V2.57143Z" fill="#DDDDDD"/>
</g>
<defs>
<filter id="filter0_d_7_254" x="0" y="0" width="13" height="13" filterUnits="userSpaceOnUse" color-interpolation-filters="sRGB">
<feFlood flood-opacity="0" result="BackgroundImageFix"/>
<feColorMatrix in="SourceAlpha" type="matrix" values="0 0 0 0 0 0 0 0 0 0 0 0 0 0 0 0 0 0 127 0" result="hardAlpha"/>
<feOffset dx="1" dy="1"/>
<feComposite in2="hardAlpha" operator="out"/>
<feColorMatrix type="matrix" values="0 0 0 0 0 0 0 0 0 0 0 0 0 0 0 0 0 0 0.25 0"/>
<feBlend mode="normal" in2="BackgroundImageFix" result="effect1_dropShadow_7_254"/>
<feBlend mode="normal" in="SourceGraphic" in2="effect1_dropShadow_7_254" result="shape"/>
</filter>
</defs>
</svg>
