<svg width="200" height="200" xmlns="http://www.w3.org/2000/svg">
  <path id="svg_1" d="m48.36957,69.67392l-19.02174,-58.80435l63.04348,42.3913l8.15217,-40.21739c0,0.1087 14.67391,39.78262 14.67391,40.32609c0,0.54348 36.95652,-50 36.95652,-50.1087c0,0.1087 -7.60869,67.50001 -7.6087,67.3913c0,0.1087 46.19565,-16.19564 46.19565,-16.30435c0,0.1087 -39.67391,46.84783 -39.67391,46.73913c0,0.1087 39.13044,12.06523 39.13043,11.95652c0,0.1087 -41.30435,15.86957 -41.30435,15.76087c0,0.1087 30.97826,43.58696 30.97826,43.47826c0,0.1087 -52.71739,-22.1739 -52.71739,-22.28261c0,0.1087 23.36957,41.41305 23.36956,41.30435c0,0.1087 -41.30435,-34.13043 -41.30435,-34.23913c0,0.1087 -31.52174,35.43479 -31.52174,35.32609c0,0.1087 -1.08696,-51.52173 -1.08696,-51.63043c0,0.1087 -62.5,47.39131 -62.5,47.28261c0,0.1087 36.95652,-63.47825 36.95652,-63.47825c0,0 -47.82609,-6.52174 -46.73913,-7.06522c1.08696,-0.54348 47.82609,-14.13043 47.82609,-14.13043c0,0 -39.67391,-28.26087 -39.67391,-28.36957 Z" fill="#E2CA8B"/>
</svg>